<mxfile host="app.diagrams.net" modified="2024-05-25T13:18:43.587Z" agent="Mozilla/5.0 (X11; Linux x86_64) AppleWebKit/537.36 (KHTML, like Gecko) Chrome/120.0.0.0 Safari/537.36" etag="oN1nUg3zkyYE7IounsJs" version="24.3.1" type="device">
  <diagram name="PÃ¡gina-1" id="nQrAkvJkoIEe61Y0adxq">
    <mxGraphModel dx="2390" dy="2546" grid="1" gridSize="10" guides="1" tooltips="1" connect="1" arrows="1" fold="1" page="1" pageScale="1" pageWidth="827" pageHeight="1169" math="0" shadow="0">
      <root>
        <mxCell id="0" />
        <mxCell id="1" parent="0" />
        <mxCell id="Y2GQcWK5v3rUhKwuBCq2-4" value="" style="rounded=1;whiteSpace=wrap;html=1;" vertex="1" parent="1">
          <mxGeometry x="210" y="-80" width="420" height="470" as="geometry" />
        </mxCell>
        <mxCell id="Y2GQcWK5v3rUhKwuBCq2-1" value="" style="endArrow=classic;html=1;rounded=0;" edge="1" parent="1">
          <mxGeometry width="50" height="50" relative="1" as="geometry">
            <mxPoint x="180" y="410" as="sourcePoint" />
            <mxPoint x="180" y="-100" as="targetPoint" />
          </mxGeometry>
        </mxCell>
        <mxCell id="Y2GQcWK5v3rUhKwuBCq2-2" value="Priority" style="text;html=1;align=center;verticalAlign=middle;resizable=0;points=[];autosize=1;strokeColor=none;fillColor=none;fontSize=20;" vertex="1" parent="1">
          <mxGeometry x="85" y="115" width="90" height="40" as="geometry" />
        </mxCell>
        <mxCell id="Y2GQcWK5v3rUhKwuBCq2-11" style="edgeStyle=orthogonalEdgeStyle;rounded=0;orthogonalLoop=1;jettySize=auto;html=1;entryX=0.5;entryY=1;entryDx=0;entryDy=0;" edge="1" parent="1" source="Y2GQcWK5v3rUhKwuBCq2-5" target="Y2GQcWK5v3rUhKwuBCq2-10">
          <mxGeometry relative="1" as="geometry" />
        </mxCell>
        <mxCell id="Y2GQcWK5v3rUhKwuBCq2-12" value="System Call" style="edgeLabel;html=1;align=center;verticalAlign=middle;resizable=0;points=[];fontSize=18;" vertex="1" connectable="0" parent="Y2GQcWK5v3rUhKwuBCq2-11">
          <mxGeometry x="-0.0629" y="-3" relative="1" as="geometry">
            <mxPoint as="offset" />
          </mxGeometry>
        </mxCell>
        <mxCell id="Y2GQcWK5v3rUhKwuBCq2-5" value="thread" style="rounded=1;whiteSpace=wrap;html=1;fillColor=#d5e8d4;strokeColor=#82b366;fontSize=23;" vertex="1" parent="1">
          <mxGeometry x="360" y="280" width="120" height="60" as="geometry" />
        </mxCell>
        <mxCell id="Y2GQcWK5v3rUhKwuBCq2-9" style="edgeStyle=orthogonalEdgeStyle;rounded=0;orthogonalLoop=1;jettySize=auto;html=1;entryX=0.5;entryY=0;entryDx=0;entryDy=0;" edge="1" parent="1" source="Y2GQcWK5v3rUhKwuBCq2-6" target="Y2GQcWK5v3rUhKwuBCq2-8">
          <mxGeometry relative="1" as="geometry" />
        </mxCell>
        <mxCell id="Y2GQcWK5v3rUhKwuBCq2-13" value="&lt;span style=&quot;font-size: 18px; text-wrap: wrap; background-color: rgb(251, 251, 251);&quot;&gt;Interrupt Request&lt;/span&gt;" style="edgeLabel;html=1;align=center;verticalAlign=middle;resizable=0;points=[];fontSize=18;" vertex="1" connectable="0" parent="Y2GQcWK5v3rUhKwuBCq2-9">
          <mxGeometry x="-0.1143" y="2" relative="1" as="geometry">
            <mxPoint as="offset" />
          </mxGeometry>
        </mxCell>
        <mxCell id="Y2GQcWK5v3rUhKwuBCq2-6" value="Hardware" style="rounded=1;whiteSpace=wrap;html=1;fillColor=#ffe6cc;strokeColor=#d79b00;fontSize=20;" vertex="1" parent="1">
          <mxGeometry x="360" y="-70" width="120" height="60" as="geometry" />
        </mxCell>
        <mxCell id="Y2GQcWK5v3rUhKwuBCq2-8" value="Interrupt Context" style="rounded=0;whiteSpace=wrap;html=1;fillColor=#f8cecc;strokeColor=#b85450;verticalAlign=middle;fontSize=19;" vertex="1" parent="1">
          <mxGeometry x="210" y="70" width="420" height="60" as="geometry" />
        </mxCell>
        <mxCell id="Y2GQcWK5v3rUhKwuBCq2-10" value="Process Context" style="rounded=0;whiteSpace=wrap;html=1;fillColor=#dae8fc;strokeColor=#6c8ebf;verticalAlign=middle;fontSize=20;" vertex="1" parent="1">
          <mxGeometry x="210" y="130" width="420" height="50" as="geometry" />
        </mxCell>
        <mxCell id="Y2GQcWK5v3rUhKwuBCq2-14" value="" style="shape=link;html=1;rounded=0;fillColor=#e1d5e7;strokeColor=#9673a6;" edge="1" parent="1">
          <mxGeometry width="100" relative="1" as="geometry">
            <mxPoint x="190" y="180" as="sourcePoint" />
            <mxPoint x="760" y="180" as="targetPoint" />
          </mxGeometry>
        </mxCell>
        <mxCell id="Y2GQcWK5v3rUhKwuBCq2-15" value="Kernel Land" style="text;html=1;align=center;verticalAlign=middle;resizable=0;points=[];autosize=1;strokeColor=none;fillColor=none;fontSize=21;" vertex="1" parent="1">
          <mxGeometry x="640" y="80" width="140" height="40" as="geometry" />
        </mxCell>
        <mxCell id="Y2GQcWK5v3rUhKwuBCq2-16" value="User Land" style="text;html=1;align=center;verticalAlign=middle;resizable=0;points=[];autosize=1;strokeColor=none;fillColor=none;fontSize=22;" vertex="1" parent="1">
          <mxGeometry x="645" y="210" width="130" height="40" as="geometry" />
        </mxCell>
        <mxCell id="Y2GQcWK5v3rUhKwuBCq2-18" value="" style="shape=flexArrow;endArrow=classic;html=1;rounded=0;startArrow=block;fillColor=#d5e8d4;strokeColor=#82b366;" edge="1" parent="1">
          <mxGeometry width="50" height="50" relative="1" as="geometry">
            <mxPoint x="70" y="760" as="sourcePoint" />
            <mxPoint x="720" y="760" as="targetPoint" />
          </mxGeometry>
        </mxCell>
        <mxCell id="Y2GQcWK5v3rUhKwuBCq2-20" value="Process VAS" style="text;html=1;align=center;verticalAlign=middle;whiteSpace=wrap;rounded=0;fontSize=18;" vertex="1" parent="1">
          <mxGeometry x="340" y="770" width="120" height="30" as="geometry" />
        </mxCell>
        <mxCell id="Y2GQcWK5v3rUhKwuBCq2-22" value="" style="rounded=0;whiteSpace=wrap;html=1;" vertex="1" parent="1">
          <mxGeometry x="80" y="585" width="640" height="135" as="geometry" />
        </mxCell>
        <mxCell id="Y2GQcWK5v3rUhKwuBCq2-23" value="CODE SEGMENT" style="rounded=0;whiteSpace=wrap;html=1;verticalAlign=middle;fillColor=#e1d5e7;strokeColor=#9673a6;" vertex="1" parent="1">
          <mxGeometry x="80" y="585" width="160" height="135" as="geometry" />
        </mxCell>
        <mxCell id="Y2GQcWK5v3rUhKwuBCq2-24" value="DATA SEGMENT" style="rounded=0;whiteSpace=wrap;html=1;verticalAlign=top;fillColor=#dae8fc;strokeColor=#6c8ebf;" vertex="1" parent="1">
          <mxGeometry x="240" y="585" width="160" height="135" as="geometry" />
        </mxCell>
        <mxCell id="Y2GQcWK5v3rUhKwuBCq2-25" value="LIBRARIES" style="rounded=0;whiteSpace=wrap;html=1;verticalAlign=middle;fillColor=#f8cecc;strokeColor=#b85450;" vertex="1" parent="1">
          <mxGeometry x="400" y="585" width="160" height="135" as="geometry" />
        </mxCell>
        <mxCell id="Y2GQcWK5v3rUhKwuBCq2-27" value="STACK" style="rounded=0;whiteSpace=wrap;html=1;verticalAlign=top;fillColor=#fff2cc;strokeColor=#d6b656;" vertex="1" parent="1">
          <mxGeometry x="560" y="585" width="160" height="135" as="geometry" />
        </mxCell>
        <mxCell id="Y2GQcWK5v3rUhKwuBCq2-28" value="Unitialized data" style="rounded=0;whiteSpace=wrap;html=1;fillColor=#dae8fc;gradientColor=#7ea6e0;strokeColor=#6c8ebf;" vertex="1" parent="1">
          <mxGeometry x="240" y="610" width="60" height="110" as="geometry" />
        </mxCell>
        <mxCell id="Y2GQcWK5v3rUhKwuBCq2-32" value="Initialized data" style="rounded=0;whiteSpace=wrap;html=1;fillColor=#dae8fc;gradientColor=#7ea6e0;strokeColor=#6c8ebf;" vertex="1" parent="1">
          <mxGeometry x="300" y="610" width="60" height="110" as="geometry" />
        </mxCell>
        <mxCell id="Y2GQcWK5v3rUhKwuBCq2-33" value="Heap" style="rounded=0;whiteSpace=wrap;html=1;fillColor=#dae8fc;gradientColor=#7ea6e0;strokeColor=#6c8ebf;" vertex="1" parent="1">
          <mxGeometry x="360" y="610" width="40" height="110" as="geometry" />
        </mxCell>
        <mxCell id="Y2GQcWK5v3rUhKwuBCq2-34" value="THRD1" style="rounded=1;whiteSpace=wrap;html=1;" vertex="1" parent="1">
          <mxGeometry x="580" y="610" width="40" height="40" as="geometry" />
        </mxCell>
        <mxCell id="Y2GQcWK5v3rUhKwuBCq2-35" value="THRD2" style="rounded=1;whiteSpace=wrap;html=1;" vertex="1" parent="1">
          <mxGeometry x="670" y="610" width="40" height="40" as="geometry" />
        </mxCell>
        <mxCell id="Y2GQcWK5v3rUhKwuBCq2-36" value="THRD3" style="rounded=1;whiteSpace=wrap;html=1;" vertex="1" parent="1">
          <mxGeometry x="620" y="660" width="40" height="40" as="geometry" />
        </mxCell>
      </root>
    </mxGraphModel>
  </diagram>
</mxfile>
